<svg xmlns="http://www.w3.org/2000/svg" width="60" height="60" viewBox="0 0 60 60">
    <path fill="#C00" fill-rule="evenodd" d="M51.366 8.773a29.077 29.077 0 0 0-41.627 0C-1.738 20.47-1.738 39.502 9.74 51.2c5.738 5.847 13.276 8.773 20.813 8.773 7.538 0 15.075-2.925 20.814-8.773 11.476-11.698 11.476-30.73 0-42.427zM11.34 10.404c5.297-5.399 12.255-8.099 19.212-8.099 6.603 0 13.188 2.463 18.372 7.324L10.58 48.709c-9.795-10.849-9.562-27.784.76-38.305zm38.425 39.163c-10.323 10.522-26.938 10.76-37.584.774l38.344-39.08c9.797 10.85 9.563 27.785-.76 38.306z"/>
</svg>
