<svg xmlns="http://www.w3.org/2000/svg" width="20" height="20" viewBox="0 0 20 20">
    <path fill="#999" fill-rule="evenodd" d="M11.915 17.513a2.542 2.542 0 0 1-2.316 1.503 2.554 2.554 0 0 1-2.317-1.503h4.633zM8.535 1.96c.054-.545.51-.974 1.069-.974.56 0 1.016.429 1.07.974a6.805 6.805 0 0 0-1.07-.093c-.365 0-.72.037-1.068.093zm-5.2 12.399h1.57v-.987H3.792V8.665a5.819 5.819 0 0 1 5.81-5.813 5.82 5.82 0 0 1 5.814 5.813v4.707H7.142v.987h8.732a2.718 2.718 0 0 1 2.3 2.167H1.035a2.712 2.712 0 0 1 2.3-2.167zm15.874 3.154l-.002-.496a3.722 3.722 0 0 0-2.804-3.561V8.665c0-3.028-1.991-5.597-4.732-6.474v-.126a2.067 2.067 0 0 0-4.132 0v.126c-2.741.876-4.733 3.446-4.733 6.474v4.79a3.718 3.718 0 0 0-2.803 3.562L0 17.513h6.236A3.537 3.537 0 0 0 9.6 20a3.525 3.525 0 0 0 3.364-2.487h6.246z"/>
</svg>
