<svg xmlns="http://www.w3.org/2000/svg" width="20" height="21" viewBox="0 0 20 21">
    <g fill="#999" fill-rule="evenodd">
        <path d="M13.237 2.345l4.91 4.354h-4.91V2.345zM20 20.227V6.557a.752.752 0 0 0-.257-.566L13.21.206A.861.861 0 0 0 12.655 0H2.551c-.447 0-.812.348-.812.773v8.632c0 .425.365.773.812.773.446 0 .811-.348.811-.773V1.546h8.251v5.926c0 .426.366.773.812.773h5.816c.041 0 .095 0 .136-.012v11.221H3.362v-3.092c0-.425-.365-.773-.811-.773-.447 0-.812.348-.812.773v3.865c0 .425.365.773.812.773h16.637c.447 0 .812-.348.812-.773z"/>
        <path d="M0 12.614c0 .41.364.745.808.745h8.417l-2.6 2.137a.707.707 0 0 0-.067 1.056.85.85 0 0 0 .606.248.88.88 0 0 0 .539-.186l4.201-3.454a.71.71 0 0 0 .27-.559.729.729 0 0 0-.27-.559L7.703 8.59a.858.858 0 0 0-1.145.062.707.707 0 0 0 .068 1.056l2.639 2.162H.808c-.444 0-.808.335-.808.745"/>
    </g>
</svg>
