<svg xmlns="http://www.w3.org/2000/svg" width="24" height="16" viewBox="0 0 24 16">
    <g fill="none" fill-rule="evenodd">
        <path fill="#FFF" d="M13.929 5.293C12.141 4.131 9.841 4.568 8.5 6.298c-1.317 1.698-1.195 4.163.287 5.758 1.48 1.595 3.82 1.76 5.535.394 1.704-1.356 1.917-3.695 1.324-4.914-.439.665-1.022.933-1.768.676-.613-.211-.944-.687-.983-1.345-.045-.759.335-1.263 1.034-1.574m-2.058-1.577c3.62.175 6.469 1.792 8.467 5.003.134.215.135.366 0 .581-2.022 3.204-4.855 4.931-8.535 4.945-3.715.014-6.57-1.72-8.608-4.951-.137-.218-.127-.37.004-.581 1.73-2.791 4.16-4.435 7.321-4.877.44-.061.885-.08 1.351-.12"/>
        <path fill="#FFF" d="M11.872 3.768c-.474.04-.926.059-1.373.119-3.213.435-5.682 2.056-7.44 4.807-.134.208-.144.358-.005.573 2.072 3.185 4.973 4.894 8.748 4.88 3.74-.013 6.62-1.716 8.674-4.874.138-.212.137-.36 0-.573-2.03-3.165-4.925-4.759-8.604-4.932M1.652 8.503c-.447-.26-.852-.489-1.25-.73-.392-.236-.506-.608-.304-.953.19-.325.554-.412.94-.2.432.237.851.495 1.3.758.344-.419.68-.829 1.075-1.308-.358-.338-.723-.667-1.069-1.015-.375-.377-.405-.772-.106-1.063.289-.281.685-.23 1.052.138l1.05 1.06 1.299-.966c-.267-.464-.567-.91-.782-1.394-.1-.226-.125-.57-.026-.786.207-.446.8-.423 1.073.016.303.489.577.996.883 1.528l1.48-.582c-.115-.443-.228-.881-.34-1.32-.034-.13-.069-.26-.096-.391C7.742.87 7.919.555 8.3.45c.329-.09.671.117.786.51.161.553.3 1.114.457 1.709.515-.06 1.023-.12 1.575-.183 0-.576-.002-1.138 0-1.7.002-.493.251-.789.655-.786.386.003.635.29.642.76.008.564.002 1.127.002 1.72l1.57.194c.158-.58.281-1.172.49-1.73.08-.21.337-.436.551-.484.174-.04.462.129.591.292.107.136.106.41.066.603-.113.55-.27 1.09-.415 1.65l1.48.583c.28-.486.55-.963.827-1.436.243-.416.578-.532.925-.327.34.2.427.57.206.98-.255.47-.528.931-.804 1.414l1.312.973c.326-.335.664-.689 1.01-1.034.112-.111.234-.232.375-.29.302-.125.586-.056.777.222.203.295.153.602-.082.85-.366.39-.757.755-1.152 1.143l1.053 1.297c.417-.245.824-.49 1.237-.726.421-.24.818-.168 1.011.172.198.348.066.726-.349.972-.388.231-.78.455-1.197.698.254.396.122.74-.088 1.094-1.97 3.308-4.818 5.291-8.612 5.795-4.67.62-9.186-1.706-11.508-5.864-.185-.33-.273-.639-.038-1.018"/>
        <path fill="#000" d="M14.01 5.553c-.724.288-1.12.752-1.072 1.452.04.607.384 1.046 1.02 1.24.774.238 1.38-.01 1.835-.623.615 1.124.394 3.282-1.374 4.533-1.78 1.26-4.207 1.107-5.744-.363C7.14 10.32 7.012 8.047 8.378 6.48c1.391-1.595 3.778-1.999 5.633-.927"/>
    </g>
</svg>
