<svg xmlns="http://www.w3.org/2000/svg" width="24" height="9" viewBox="0 0 24 9">
    <path fill="#FFF" fill-rule="evenodd" d="M23.552.7c-.39-.232-.784-.457-1.201-.7h-1.615c-2.063 3.081-4.964 4.637-8.63 4.81-.483-.041-.944-.06-1.4-.122C7.515 4.256 5.046 2.674 3.262 0H1.653C1.21.257.806.486.41.725c-.4.241-.516.62-.31.972.194.332.565.42.96.204.439-.242.867-.505 1.324-.772L3.48 2.462c-.364.345-.737.68-1.09 1.035-.382.384-.413.787-.108 1.084.294.287.699.235 1.073-.14l1.07-1.08 1.325.984c-.272.473-.578.927-.797 1.42-.102.232-.128.583-.026.803.21.455.815.431 1.093-.017.31-.498.59-1.016.901-1.558l1.51.594c-.118.452-.233.898-.348 1.345-.034.133-.07.266-.097.4-.09.432.09.754.477.86.336.093.685-.118.802-.518.165-.565.305-1.137.466-1.743l1.606.186c0 .587-.002 1.16 0 1.734.003.503.257.804.668.801.394-.003.648-.295.655-.775.008-.575.002-1.15.002-1.754l1.6-.198c.162.593.288 1.195.501 1.764.081.215.344.445.562.494.177.04.47-.131.602-.298.11-.138.109-.417.068-.615-.115-.56-.276-1.112-.423-1.682l1.508-.595c.286.496.562.982.844 1.464.248.425.589.543.943.334.347-.204.436-.582.21-1-.26-.48-.538-.949-.82-1.44l1.338-.994c.333.342.677.703 1.03 1.055.115.114.239.237.382.296.308.127.598.056.793-.227.207-.3.156-.614-.083-.867-.374-.396-.773-.769-1.175-1.165l1.073-1.323c.425.25.84.5 1.262.74.43.245.834.172 1.031-.174.202-.355.067-.74-.356-.992"/>
</svg>
