<svg xmlns="http://www.w3.org/2000/svg" width="40" height="35" viewBox="0 0 40 35">
    <g fill="#BEC0C0" fill-rule="evenodd">
        <path d="M38.758 0H.68C.305 0 0 .33 0 .74v32.555c0 .41.305.74.68.74h38.078c.375 0 .68-.33.68-.74V.74c0-.41-.305-.74-.68-.74zm-.68 32.555H1.36V1.48h36.718v31.075z"/>
        <path d="M10.88 16.38c2.088 0 3.786-1.849 3.786-4.12 0-2.273-1.698-4.121-3.787-4.121-2.088 0-3.786 1.848-3.786 4.12 0 2.272 1.698 4.12 3.786 4.12zm0-6.761c1.338 0 2.426 1.185 2.426 2.64 0 1.456-1.088 2.64-2.427 2.64-1.338 0-2.426-1.184-2.426-2.639 0-1.455 1.088-2.641 2.426-2.641zM4.76 29.596c.159 0 .32-.061.449-.185L16.3 18.785l7.005 7.622c.266.289.695.289.961 0a.786.786 0 0 0 0-1.047L21 21.804l6.242-7.439 7.658 7.638a.642.642 0 0 0 .96-.046.786.786 0 0 0-.042-1.045l-8.16-8.14a.669.669 0 0 0-.489-.193.66.66 0 0 0-.472.24l-6.66 7.937-3.225-3.51a.641.641 0 0 0-.93-.032L4.311 28.3a.786.786 0 0 0-.062 1.045c.135.166.322.25.51.25z"/>
    </g>
</svg>
